<mxfile host="Electron" agent="Mozilla/5.0 (Windows NT 10.0; Win64; x64) AppleWebKit/537.36 (KHTML, like Gecko) draw.io/24.7.17 Chrome/128.0.6613.36 Electron/32.0.1 Safari/537.36" version="24.7.17">
  <diagram name="PÃ¡gina-1" id="ZKKB7fTZ_MVpZfMOn_04">
    <mxGraphModel dx="1434" dy="836" grid="1" gridSize="10" guides="1" tooltips="1" connect="1" arrows="1" fold="1" page="1" pageScale="1" pageWidth="827" pageHeight="1169" math="0" shadow="0">
      <root>
        <mxCell id="0" />
        <mxCell id="1" parent="0" />
        <mxCell id="-ClpmWL-vCqkwVTe-hmP-2" value="claims.csv" style="verticalLabelPosition=bottom;html=1;verticalAlign=top;align=center;strokeColor=none;fillColor=#00BEF2;shape=mxgraph.azure.file_2;pointerEvents=1;" parent="1" vertex="1">
          <mxGeometry x="110" y="120" width="40" height="40" as="geometry" />
        </mxCell>
        <mxCell id="-ClpmWL-vCqkwVTe-hmP-3" value="clients.csv" style="verticalLabelPosition=bottom;html=1;verticalAlign=top;align=center;strokeColor=none;fillColor=#00BEF2;shape=mxgraph.azure.file_2;pointerEvents=1;" parent="1" vertex="1">
          <mxGeometry x="110" y="195" width="40" height="40" as="geometry" />
        </mxCell>
        <mxCell id="-ClpmWL-vCqkwVTe-hmP-4" value="payments.csv" style="verticalLabelPosition=bottom;html=1;verticalAlign=top;align=center;strokeColor=none;fillColor=#00BEF2;shape=mxgraph.azure.file_2;pointerEvents=1;" parent="1" vertex="1">
          <mxGeometry x="110" y="270" width="40" height="40" as="geometry" />
        </mxCell>
        <mxCell id="-ClpmWL-vCqkwVTe-hmP-5" value="policies.csv" style="verticalLabelPosition=bottom;html=1;verticalAlign=top;align=center;strokeColor=none;fillColor=#00BEF2;shape=mxgraph.azure.file_2;pointerEvents=1;" parent="1" vertex="1">
          <mxGeometry x="110" y="345" width="40" height="40" as="geometry" />
        </mxCell>
        <mxCell id="-ClpmWL-vCqkwVTe-hmP-6" value="customer.csv" style="verticalLabelPosition=bottom;html=1;verticalAlign=top;align=center;strokeColor=#82b366;fillColor=#d5e8d4;shape=mxgraph.azure.file_2;pointerEvents=1;" parent="1" vertex="1">
          <mxGeometry x="105" y="596" width="40" height="40" as="geometry" />
        </mxCell>
        <mxCell id="-ClpmWL-vCqkwVTe-hmP-7" value="" style="rounded=0;whiteSpace=wrap;html=1;fillColor=none;dashed=1;dashPattern=8 8;" parent="1" vertex="1">
          <mxGeometry x="60" y="100" width="150" height="400" as="geometry" />
        </mxCell>
        <mxCell id="-ClpmWL-vCqkwVTe-hmP-8" value="vehicles.csv" style="verticalLabelPosition=bottom;html=1;verticalAlign=top;align=center;strokeColor=none;fillColor=#00BEF2;shape=mxgraph.azure.file_2;pointerEvents=1;" parent="1" vertex="1">
          <mxGeometry x="110" y="420" width="40" height="40" as="geometry" />
        </mxCell>
        <mxCell id="-ClpmWL-vCqkwVTe-hmP-9" value="&lt;font style=&quot;font-size: 15px;&quot;&gt;&lt;b&gt;ERP&lt;/b&gt;&lt;/font&gt;" style="text;html=1;align=center;verticalAlign=middle;whiteSpace=wrap;rounded=0;fillColor=default;" parent="1" vertex="1">
          <mxGeometry x="100" y="80" width="60" height="30" as="geometry" />
        </mxCell>
        <mxCell id="-ClpmWL-vCqkwVTe-hmP-11" value="" style="rounded=0;whiteSpace=wrap;html=1;fillColor=none;dashed=1;dashPattern=8 8;" parent="1" vertex="1">
          <mxGeometry x="60" y="556" width="150" height="120" as="geometry" />
        </mxCell>
        <mxCell id="-ClpmWL-vCqkwVTe-hmP-12" value="&lt;font style=&quot;font-size: 14px;&quot;&gt;&lt;b&gt;CRM&lt;/b&gt;&lt;/font&gt;" style="text;html=1;align=center;verticalAlign=middle;whiteSpace=wrap;rounded=0;fillColor=default;" parent="1" vertex="1">
          <mxGeometry x="95" y="546" width="60" height="30" as="geometry" />
        </mxCell>
        <mxCell id="-ClpmWL-vCqkwVTe-hmP-15" style="edgeStyle=orthogonalEdgeStyle;rounded=0;orthogonalLoop=1;jettySize=auto;html=1;exitX=0.5;exitY=1;exitDx=0;exitDy=0;" parent="1" edge="1">
          <mxGeometry relative="1" as="geometry">
            <mxPoint x="410" y="235" as="sourcePoint" />
            <mxPoint x="410" y="235" as="targetPoint" />
          </mxGeometry>
        </mxCell>
        <mxCell id="-ClpmWL-vCqkwVTe-hmP-17" value="" style="rounded=0;whiteSpace=wrap;html=1;dashed=1;fillColor=none;" parent="1" vertex="1">
          <mxGeometry x="920" y="250" width="240" height="400" as="geometry" />
        </mxCell>
        <mxCell id="-ClpmWL-vCqkwVTe-hmP-18" style="edgeStyle=orthogonalEdgeStyle;rounded=0;orthogonalLoop=1;jettySize=auto;html=1;exitX=0.5;exitY=1;exitDx=0;exitDy=0;" parent="1" edge="1">
          <mxGeometry relative="1" as="geometry">
            <mxPoint x="1191" y="220" as="sourcePoint" />
            <mxPoint x="1191" y="220" as="targetPoint" />
          </mxGeometry>
        </mxCell>
        <mxCell id="-ClpmWL-vCqkwVTe-hmP-20" value="Bronze Layer" style="rounded=0;whiteSpace=wrap;html=1;fillColor=#ffe6cc;strokeColor=#d79b00;" parent="1" vertex="1">
          <mxGeometry x="324" y="275" width="110" height="30" as="geometry" />
        </mxCell>
        <mxCell id="3rBEs1fn-p0gO1Dq3yI3-55" style="edgeStyle=orthogonalEdgeStyle;rounded=0;orthogonalLoop=1;jettySize=auto;html=1;exitX=1;exitY=0.521;exitDx=0;exitDy=0;exitPerimeter=0;" parent="1" source="-ClpmWL-vCqkwVTe-hmP-21" target="3rBEs1fn-p0gO1Dq3yI3-25" edge="1">
          <mxGeometry relative="1" as="geometry" />
        </mxCell>
        <mxCell id="-ClpmWL-vCqkwVTe-hmP-21" value="" style="rounded=0;whiteSpace=wrap;html=1;strokeColor=#d79b00;fillColor=none;" parent="1" vertex="1">
          <mxGeometry x="324" y="315" width="110" height="205" as="geometry" />
        </mxCell>
        <mxCell id="-ClpmWL-vCqkwVTe-hmP-22" value="Silver Layer" style="rounded=0;whiteSpace=wrap;html=1;" parent="1" vertex="1">
          <mxGeometry x="519.5" y="275" width="110" height="30" as="geometry" />
        </mxCell>
        <mxCell id="-ClpmWL-vCqkwVTe-hmP-23" value="" style="rounded=0;whiteSpace=wrap;html=1;strokeColor=#666666;fillColor=none;fontColor=#333333;" parent="1" vertex="1">
          <mxGeometry x="519.5" y="315" width="110" height="205" as="geometry" />
        </mxCell>
        <mxCell id="-ClpmWL-vCqkwVTe-hmP-24" value="Gold Layer" style="rounded=0;whiteSpace=wrap;html=1;fillColor=#fff2cc;strokeColor=#d6b656;" parent="1" vertex="1">
          <mxGeometry x="702.5" y="276" width="110" height="30" as="geometry" />
        </mxCell>
        <mxCell id="3rBEs1fn-p0gO1Dq3yI3-71" style="edgeStyle=orthogonalEdgeStyle;rounded=0;orthogonalLoop=1;jettySize=auto;html=1;" parent="1" source="-ClpmWL-vCqkwVTe-hmP-25" target="3rBEs1fn-p0gO1Dq3yI3-6" edge="1">
          <mxGeometry relative="1" as="geometry" />
        </mxCell>
        <mxCell id="3rBEs1fn-p0gO1Dq3yI3-72" style="edgeStyle=orthogonalEdgeStyle;rounded=0;orthogonalLoop=1;jettySize=auto;html=1;exitX=1;exitY=0.5;exitDx=0;exitDy=0;" parent="1" source="-ClpmWL-vCqkwVTe-hmP-25" target="3rBEs1fn-p0gO1Dq3yI3-68" edge="1">
          <mxGeometry relative="1" as="geometry" />
        </mxCell>
        <mxCell id="-ClpmWL-vCqkwVTe-hmP-25" value="" style="rounded=0;whiteSpace=wrap;html=1;strokeColor=#d79b00;fillColor=none;" parent="1" vertex="1">
          <mxGeometry x="702.5" y="316" width="110" height="204" as="geometry" />
        </mxCell>
        <mxCell id="-ClpmWL-vCqkwVTe-hmP-26" value="&lt;font style=&quot;font-size: 8px;&quot;&gt;Raw Data&lt;/font&gt;" style="html=1;verticalLabelPosition=bottom;align=center;labelBackgroundColor=#ffffff;verticalAlign=top;strokeWidth=2;strokeColor=#FFB570;shadow=0;dashed=0;shape=mxgraph.ios7.icons.data;" parent="1" vertex="1">
          <mxGeometry x="359" y="351" width="35" height="40" as="geometry" />
        </mxCell>
        <mxCell id="-ClpmWL-vCqkwVTe-hmP-27" value="&lt;font style=&quot;font-size: 8px;&quot;&gt;Cleaned, Standarized&amp;nbsp;&lt;/font&gt;&lt;div style=&quot;font-size: 8px;&quot;&gt;&lt;font style=&quot;font-size: 8px;&quot;&gt;Data&lt;/font&gt;&lt;/div&gt;" style="html=1;verticalLabelPosition=bottom;align=center;labelBackgroundColor=#ffffff;verticalAlign=top;strokeWidth=2;strokeColor=#CCCCCC;shadow=0;dashed=0;shape=mxgraph.ios7.icons.data;" parent="1" vertex="1">
          <mxGeometry x="559" y="351" width="35" height="40" as="geometry" />
        </mxCell>
        <mxCell id="-ClpmWL-vCqkwVTe-hmP-28" value="&lt;font style=&quot;font-size: 8px;&quot;&gt;Business-Ready Data&lt;/font&gt;" style="html=1;verticalLabelPosition=bottom;align=center;labelBackgroundColor=#ffffff;verticalAlign=top;strokeWidth=2;strokeColor=#FFD966;shadow=0;dashed=0;shape=mxgraph.ios7.icons.data;" parent="1" vertex="1">
          <mxGeometry x="740" y="352" width="35" height="40" as="geometry" />
        </mxCell>
        <mxCell id="-ClpmWL-vCqkwVTe-hmP-29" value="" style="endArrow=none;html=1;rounded=0;strokeColor=#999999;" parent="1" edge="1">
          <mxGeometry width="50" height="50" relative="1" as="geometry">
            <mxPoint x="344.76" y="424.65999999999997" as="sourcePoint" />
            <mxPoint x="413.25" y="424.65999999999997" as="targetPoint" />
          </mxGeometry>
        </mxCell>
        <mxCell id="-ClpmWL-vCqkwVTe-hmP-30" value="&lt;font style=&quot;font-size: 7px;&quot;&gt;&lt;b&gt;Format Type&lt;/b&gt;: Parquet&lt;/font&gt;" style="text;html=1;align=center;verticalAlign=middle;whiteSpace=wrap;rounded=0;" parent="1" vertex="1">
          <mxGeometry x="335.74" y="425" width="81.52" height="30" as="geometry" />
        </mxCell>
        <mxCell id="-ClpmWL-vCqkwVTe-hmP-31" value="&lt;b style=&quot;font-size: 7px;&quot;&gt;Format Type&lt;/b&gt;&lt;span style=&quot;font-size: 7px;&quot;&gt;: Parquet&lt;/span&gt;" style="text;html=1;align=center;verticalAlign=middle;whiteSpace=wrap;rounded=0;" parent="1" vertex="1">
          <mxGeometry x="536.74" y="425" width="81.52" height="30" as="geometry" />
        </mxCell>
        <mxCell id="-ClpmWL-vCqkwVTe-hmP-32" value="&lt;b style=&quot;font-size: 7px;&quot;&gt;Format Type&lt;/b&gt;&lt;span style=&quot;font-size: 7px;&quot;&gt;: Parquet&lt;/span&gt;" style="text;html=1;align=center;verticalAlign=middle;whiteSpace=wrap;rounded=0;" parent="1" vertex="1">
          <mxGeometry x="716.74" y="426" width="81.52" height="30" as="geometry" />
        </mxCell>
        <mxCell id="-ClpmWL-vCqkwVTe-hmP-33" value="" style="endArrow=none;html=1;rounded=0;strokeColor=#999999;" parent="1" edge="1">
          <mxGeometry width="50" height="50" relative="1" as="geometry">
            <mxPoint x="542.26" y="424.71999999999997" as="sourcePoint" />
            <mxPoint x="610.75" y="424.71999999999997" as="targetPoint" />
          </mxGeometry>
        </mxCell>
        <mxCell id="-ClpmWL-vCqkwVTe-hmP-34" value="" style="endArrow=none;html=1;rounded=0;strokeColor=#999999;" parent="1" edge="1">
          <mxGeometry width="50" height="50" relative="1" as="geometry">
            <mxPoint x="723.25" y="425.71999999999997" as="sourcePoint" />
            <mxPoint x="791.74" y="425.71999999999997" as="targetPoint" />
          </mxGeometry>
        </mxCell>
        <mxCell id="3rBEs1fn-p0gO1Dq3yI3-1" value="AWS Cloud" style="points=[[0,0],[0.25,0],[0.5,0],[0.75,0],[1,0],[1,0.25],[1,0.5],[1,0.75],[1,1],[0.75,1],[0.5,1],[0.25,1],[0,1],[0,0.75],[0,0.5],[0,0.25]];outlineConnect=0;gradientColor=none;html=1;whiteSpace=wrap;fontSize=12;fontStyle=0;container=1;pointerEvents=0;collapsible=0;recursiveResize=0;shape=mxgraph.aws4.group;grIcon=mxgraph.aws4.group_aws_cloud;strokeColor=#232F3E;fillColor=none;verticalAlign=top;align=left;spacingLeft=30;fontColor=#232F3E;dashed=0;" parent="1" vertex="1">
          <mxGeometry x="240" y="156" width="800" height="520" as="geometry" />
        </mxCell>
        <mxCell id="3rBEs1fn-p0gO1Dq3yI3-6" value="dw-insurance" style="outlineConnect=0;dashed=0;verticalLabelPosition=bottom;verticalAlign=top;align=center;html=1;shape=mxgraph.aws3.redshift;fillColor=#2E73B8;gradientColor=none;" parent="3rBEs1fn-p0gO1Dq3yI3-1" vertex="1">
          <mxGeometry x="710" y="150" width="60" height="60" as="geometry" />
        </mxCell>
        <mxCell id="3rBEs1fn-p0gO1Dq3yI3-25" value="" style="sketch=0;points=[[0,0,0],[0.25,0,0],[0.5,0,0],[0.75,0,0],[1,0,0],[0,1,0],[0.25,1,0],[0.5,1,0],[0.75,1,0],[1,1,0],[0,0.25,0],[0,0.5,0],[0,0.75,0],[1,0.25,0],[1,0.5,0],[1,0.75,0]];outlineConnect=0;fontColor=#232F3E;fillColor=#8C4FFF;strokeColor=#ffffff;dashed=0;verticalLabelPosition=bottom;verticalAlign=top;align=center;html=1;fontSize=12;fontStyle=0;aspect=fixed;shape=mxgraph.aws4.resourceIcon;resIcon=mxgraph.aws4.glue;" parent="3rBEs1fn-p0gO1Dq3yI3-1" vertex="1">
          <mxGeometry x="220" y="242.5" width="45" height="45" as="geometry" />
        </mxCell>
        <mxCell id="3rBEs1fn-p0gO1Dq3yI3-27" value="" style="sketch=0;points=[[0,0,0],[0.25,0,0],[0.5,0,0],[0.75,0,0],[1,0,0],[0,1,0],[0.25,1,0],[0.5,1,0],[0.75,1,0],[1,1,0],[0,0.25,0],[0,0.5,0],[0,0.75,0],[1,0.25,0],[1,0.5,0],[1,0.75,0]];outlineConnect=0;fontColor=#232F3E;fillColor=#8C4FFF;strokeColor=#ffffff;dashed=0;verticalLabelPosition=bottom;verticalAlign=top;align=center;html=1;fontSize=12;fontStyle=0;aspect=fixed;shape=mxgraph.aws4.resourceIcon;resIcon=mxgraph.aws4.glue;" parent="3rBEs1fn-p0gO1Dq3yI3-1" vertex="1">
          <mxGeometry x="405" y="239" width="45" height="45" as="geometry" />
        </mxCell>
        <mxCell id="3rBEs1fn-p0gO1Dq3yI3-33" value="" style="sketch=0;points=[[0,0,0],[0.25,0,0],[0.5,0,0],[0.75,0,0],[1,0,0],[0,1,0],[0.25,1,0],[0.5,1,0],[0.75,1,0],[1,1,0],[0,0.25,0],[0,0.5,0],[0,0.75,0],[1,0.25,0],[1,0.5,0],[1,0.75,0]];outlineConnect=0;fontColor=#232F3E;fillColor=#8C4FFF;strokeColor=#ffffff;dashed=0;verticalLabelPosition=bottom;verticalAlign=top;align=center;html=1;fontSize=12;fontStyle=0;aspect=fixed;shape=mxgraph.aws4.resourceIcon;resIcon=mxgraph.aws4.glue;" parent="3rBEs1fn-p0gO1Dq3yI3-1" vertex="1">
          <mxGeometry x="10" y="242.5" width="45" height="45" as="geometry" />
        </mxCell>
        <mxCell id="3rBEs1fn-p0gO1Dq3yI3-4" value="" style="sketch=0;pointerEvents=1;shadow=0;dashed=0;html=1;strokeColor=none;fillColor=#DF8C42;labelPosition=center;verticalLabelPosition=bottom;verticalAlign=top;align=center;outlineConnect=0;shape=mxgraph.veeam2.aws_s3;" parent="3rBEs1fn-p0gO1Dq3yI3-1" vertex="1">
          <mxGeometry x="553" y="150" width="34" height="34" as="geometry" />
        </mxCell>
        <mxCell id="3rBEs1fn-p0gO1Dq3yI3-37" value="" style="sketch=0;pointerEvents=1;shadow=0;dashed=0;html=1;strokeColor=none;fillColor=#DF8C42;labelPosition=center;verticalLabelPosition=bottom;verticalAlign=top;align=center;outlineConnect=0;shape=mxgraph.veeam2.aws_s3;" parent="3rBEs1fn-p0gO1Dq3yI3-1" vertex="1">
          <mxGeometry x="371" y="150" width="34" height="34" as="geometry" />
        </mxCell>
        <mxCell id="3rBEs1fn-p0gO1Dq3yI3-47" value="" style="sketch=0;pointerEvents=1;shadow=0;dashed=0;html=1;strokeColor=none;fillColor=#DF8C42;labelPosition=center;verticalLabelPosition=bottom;verticalAlign=top;align=center;outlineConnect=0;shape=mxgraph.veeam2.aws_s3;" parent="3rBEs1fn-p0gO1Dq3yI3-1" vertex="1">
          <mxGeometry x="174" y="150" width="34" height="34" as="geometry" />
        </mxCell>
        <mxCell id="3rBEs1fn-p0gO1Dq3yI3-61" value="" style="rounded=1;whiteSpace=wrap;html=1;fillColor=none;strokeColor=#FFB570;dashed=1;strokeWidth=2;" parent="3rBEs1fn-p0gO1Dq3yI3-1" vertex="1">
          <mxGeometry x="140" y="404" width="380" height="96" as="geometry" />
        </mxCell>
        <mxCell id="3rBEs1fn-p0gO1Dq3yI3-63" value="IAM" style="sketch=0;points=[[0,0,0],[0.25,0,0],[0.5,0,0],[0.75,0,0],[1,0,0],[0,1,0],[0.25,1,0],[0.5,1,0],[0.75,1,0],[1,1,0],[0,0.25,0],[0,0.5,0],[0,0.75,0],[1,0.25,0],[1,0.5,0],[1,0.75,0]];outlineConnect=0;fontColor=#232F3E;fillColor=#DD344C;strokeColor=#ffffff;dashed=0;verticalLabelPosition=bottom;verticalAlign=top;align=center;html=1;fontSize=12;fontStyle=0;aspect=fixed;shape=mxgraph.aws4.resourceIcon;resIcon=mxgraph.aws4.identity_and_access_management;" parent="3rBEs1fn-p0gO1Dq3yI3-1" vertex="1">
          <mxGeometry x="174" y="421.87" width="45.75" height="45.75" as="geometry" />
        </mxCell>
        <mxCell id="3rBEs1fn-p0gO1Dq3yI3-64" value="Amazon VPC" style="sketch=0;points=[[0,0,0],[0.25,0,0],[0.5,0,0],[0.75,0,0],[1,0,0],[0,1,0],[0.25,1,0],[0.5,1,0],[0.75,1,0],[1,1,0],[0,0.25,0],[0,0.5,0],[0,0.75,0],[1,0.25,0],[1,0.5,0],[1,0.75,0]];outlineConnect=0;fontColor=#232F3E;fillColor=#8C4FFF;strokeColor=#ffffff;dashed=0;verticalLabelPosition=bottom;verticalAlign=top;align=center;html=1;fontSize=12;fontStyle=0;aspect=fixed;shape=mxgraph.aws4.resourceIcon;resIcon=mxgraph.aws4.vpc;" parent="3rBEs1fn-p0gO1Dq3yI3-1" vertex="1">
          <mxGeometry x="303" y="421.87" width="45.75" height="45.75" as="geometry" />
        </mxCell>
        <mxCell id="3rBEs1fn-p0gO1Dq3yI3-65" value="Amazon CloudWatch" style="sketch=0;points=[[0,0,0],[0.25,0,0],[0.5,0,0],[0.75,0,0],[1,0,0],[0,1,0],[0.25,1,0],[0.5,1,0],[0.75,1,0],[1,1,0],[0,0.25,0],[0,0.5,0],[0,0.75,0],[1,0.25,0],[1,0.5,0],[1,0.75,0]];points=[[0,0,0],[0.25,0,0],[0.5,0,0],[0.75,0,0],[1,0,0],[0,1,0],[0.25,1,0],[0.5,1,0],[0.75,1,0],[1,1,0],[0,0.25,0],[0,0.5,0],[0,0.75,0],[1,0.25,0],[1,0.5,0],[1,0.75,0]];outlineConnect=0;fontColor=#232F3E;fillColor=#E7157B;strokeColor=#ffffff;dashed=0;verticalLabelPosition=bottom;verticalAlign=top;align=center;html=1;fontSize=12;fontStyle=0;aspect=fixed;shape=mxgraph.aws4.resourceIcon;resIcon=mxgraph.aws4.cloudwatch_2;" parent="3rBEs1fn-p0gO1Dq3yI3-1" vertex="1">
          <mxGeometry x="430" y="420.68" width="48.13" height="48.13" as="geometry" />
        </mxCell>
        <mxCell id="3rBEs1fn-p0gO1Dq3yI3-66" value="&lt;font style=&quot;font-size: 14px;&quot;&gt;Security &amp;amp; Monitory&lt;/font&gt;" style="rounded=1;whiteSpace=wrap;html=1;strokeColor=none;fillColor=default;" parent="3rBEs1fn-p0gO1Dq3yI3-1" vertex="1">
          <mxGeometry x="257.5" y="390.68" width="145" height="30" as="geometry" />
        </mxCell>
        <mxCell id="3rBEs1fn-p0gO1Dq3yI3-68" value="Athena" style="sketch=0;points=[[0,0,0],[0.25,0,0],[0.5,0,0],[0.75,0,0],[1,0,0],[0,1,0],[0.25,1,0],[0.5,1,0],[0.75,1,0],[1,1,0],[0,0.25,0],[0,0.5,0],[0,0.75,0],[1,0.25,0],[1,0.5,0],[1,0.75,0]];outlineConnect=0;fontColor=#232F3E;fillColor=#8C4FFF;strokeColor=#ffffff;dashed=0;verticalLabelPosition=bottom;verticalAlign=top;align=center;html=1;fontSize=12;fontStyle=0;aspect=fixed;shape=mxgraph.aws4.resourceIcon;resIcon=mxgraph.aws4.athena;" parent="3rBEs1fn-p0gO1Dq3yI3-1" vertex="1">
          <mxGeometry x="710" y="287.5" width="64" height="64" as="geometry" />
        </mxCell>
        <mxCell id="vbPMTM3KG2Y7SeXqZmjB-1" value="BedRock" style="sketch=0;points=[[0,0,0],[0.25,0,0],[0.5,0,0],[0.75,0,0],[1,0,0],[0,1,0],[0.25,1,0],[0.5,1,0],[0.75,1,0],[1,1,0],[0,0.25,0],[0,0.5,0],[0,0.75,0],[1,0.25,0],[1,0.5,0],[1,0.75,0]];outlineConnect=0;fontColor=#232F3E;fillColor=#01A88D;strokeColor=#ffffff;dashed=0;verticalLabelPosition=bottom;verticalAlign=top;align=center;html=1;fontSize=12;fontStyle=0;aspect=fixed;shape=mxgraph.aws4.resourceIcon;resIcon=mxgraph.aws4.bedrock;" vertex="1" parent="3rBEs1fn-p0gO1Dq3yI3-1">
          <mxGeometry x="715" y="414" width="50" height="50" as="geometry" />
        </mxCell>
        <mxCell id="-ClpmWL-vCqkwVTe-hmP-16" value="&lt;span style=&quot;font-size: 16px;&quot;&gt;wd-insurance-data-lake&lt;/span&gt;" style="rounded=1;whiteSpace=wrap;html=1;strokeColor=none;fillColor=default;" parent="3rBEs1fn-p0gO1Dq3yI3-1" vertex="1">
          <mxGeometry x="245" y="54" width="170" height="30" as="geometry" />
        </mxCell>
        <mxCell id="-ClpmWL-vCqkwVTe-hmP-35" value="" style="image;aspect=fixed;html=1;points=[];align=center;fontSize=12;image=img/lib/azure2/analytics/Power_BI_Embedded.svg;" parent="1" vertex="1">
          <mxGeometry x="1093.5" y="365" width="37.5" height="50" as="geometry" />
        </mxCell>
        <mxCell id="3rBEs1fn-p0gO1Dq3yI3-22" style="edgeStyle=orthogonalEdgeStyle;rounded=0;orthogonalLoop=1;jettySize=auto;html=1;entryX=0;entryY=0.5;entryDx=0;entryDy=0;" parent="1" source="3rBEs1fn-p0gO1Dq3yI3-14" target="3rBEs1fn-p0gO1Dq3yI3-21" edge="1">
          <mxGeometry relative="1" as="geometry" />
        </mxCell>
        <mxCell id="3rBEs1fn-p0gO1Dq3yI3-14" value="Generation" style="rounded=1;whiteSpace=wrap;html=1;fillColor=#ffe6cc;strokeColor=#d79b00;" parent="1" vertex="1">
          <mxGeometry x="70" y="740" width="120" height="60" as="geometry" />
        </mxCell>
        <mxCell id="3rBEs1fn-p0gO1Dq3yI3-15" value="Ingestion" style="rounded=1;whiteSpace=wrap;html=1;fillColor=#dce6ff;strokeColor=#6c8ebf;" parent="1" vertex="1">
          <mxGeometry x="380" y="710" width="120" height="60" as="geometry" />
        </mxCell>
        <mxCell id="3rBEs1fn-p0gO1Dq3yI3-16" value="Transformation" style="rounded=1;whiteSpace=wrap;html=1;fillColor=#bac8d3;strokeColor=#23445d;" parent="1" vertex="1">
          <mxGeometry x="522.5" y="710" width="120" height="60" as="geometry" />
        </mxCell>
        <mxCell id="3rBEs1fn-p0gO1Dq3yI3-17" value="Serving" style="rounded=1;whiteSpace=wrap;html=1;fillColor=#b0e3e6;strokeColor=#0e8088;" parent="1" vertex="1">
          <mxGeometry x="667.5" y="710" width="120" height="60" as="geometry" />
        </mxCell>
        <mxCell id="3rBEs1fn-p0gO1Dq3yI3-18" value="Storage" style="rounded=1;whiteSpace=wrap;html=1;fillColor=#647687;strokeColor=#314354;fontColor=#ffffff;" parent="1" vertex="1">
          <mxGeometry x="380" y="770" width="410" height="60" as="geometry" />
        </mxCell>
        <mxCell id="3rBEs1fn-p0gO1Dq3yI3-19" value="Analytics" style="rounded=1;whiteSpace=wrap;html=1;fillColor=#f8cecc;strokeColor=#b85450;" parent="1" vertex="1">
          <mxGeometry x="980" y="740" width="120" height="60" as="geometry" />
        </mxCell>
        <mxCell id="3rBEs1fn-p0gO1Dq3yI3-23" style="edgeStyle=orthogonalEdgeStyle;rounded=0;orthogonalLoop=1;jettySize=auto;html=1;exitX=1;exitY=0.5;exitDx=0;exitDy=0;entryX=0;entryY=0.5;entryDx=0;entryDy=0;" parent="1" source="3rBEs1fn-p0gO1Dq3yI3-21" target="3rBEs1fn-p0gO1Dq3yI3-19" edge="1">
          <mxGeometry relative="1" as="geometry" />
        </mxCell>
        <mxCell id="3rBEs1fn-p0gO1Dq3yI3-21" value="" style="rounded=0;whiteSpace=wrap;html=1;fillColor=none;strokeWidth=2;" parent="1" vertex="1">
          <mxGeometry x="370" y="700" width="430" height="140" as="geometry" />
        </mxCell>
        <mxCell id="3rBEs1fn-p0gO1Dq3yI3-32" style="edgeStyle=orthogonalEdgeStyle;rounded=0;orthogonalLoop=1;jettySize=auto;html=1;exitX=1;exitY=0.5;exitDx=0;exitDy=0;exitPerimeter=0;entryX=0;entryY=0.5;entryDx=0;entryDy=0;" parent="1" source="3rBEs1fn-p0gO1Dq3yI3-27" target="-ClpmWL-vCqkwVTe-hmP-25" edge="1">
          <mxGeometry relative="1" as="geometry" />
        </mxCell>
        <mxCell id="3rBEs1fn-p0gO1Dq3yI3-35" style="edgeStyle=orthogonalEdgeStyle;rounded=0;orthogonalLoop=1;jettySize=auto;html=1;exitX=1;exitY=0.5;exitDx=0;exitDy=0;entryX=0;entryY=0.25;entryDx=0;entryDy=0;entryPerimeter=0;" parent="1" source="-ClpmWL-vCqkwVTe-hmP-7" target="3rBEs1fn-p0gO1Dq3yI3-33" edge="1">
          <mxGeometry relative="1" as="geometry" />
        </mxCell>
        <mxCell id="3rBEs1fn-p0gO1Dq3yI3-36" style="edgeStyle=orthogonalEdgeStyle;rounded=0;orthogonalLoop=1;jettySize=auto;html=1;entryX=0;entryY=0.5;entryDx=0;entryDy=0;entryPerimeter=0;" parent="1" source="-ClpmWL-vCqkwVTe-hmP-11" target="3rBEs1fn-p0gO1Dq3yI3-33" edge="1">
          <mxGeometry relative="1" as="geometry" />
        </mxCell>
        <mxCell id="3rBEs1fn-p0gO1Dq3yI3-54" style="edgeStyle=orthogonalEdgeStyle;rounded=0;orthogonalLoop=1;jettySize=auto;html=1;exitX=1;exitY=0.5;exitDx=0;exitDy=0;entryX=0;entryY=0.5;entryDx=0;entryDy=0;entryPerimeter=0;" parent="1" source="-ClpmWL-vCqkwVTe-hmP-23" target="3rBEs1fn-p0gO1Dq3yI3-27" edge="1">
          <mxGeometry relative="1" as="geometry" />
        </mxCell>
        <mxCell id="3rBEs1fn-p0gO1Dq3yI3-57" style="edgeStyle=orthogonalEdgeStyle;rounded=0;orthogonalLoop=1;jettySize=auto;html=1;exitX=1;exitY=0.5;exitDx=0;exitDy=0;exitPerimeter=0;entryX=-0.002;entryY=0.513;entryDx=0;entryDy=0;entryPerimeter=0;" parent="1" source="3rBEs1fn-p0gO1Dq3yI3-25" target="-ClpmWL-vCqkwVTe-hmP-23" edge="1">
          <mxGeometry relative="1" as="geometry" />
        </mxCell>
        <mxCell id="3rBEs1fn-p0gO1Dq3yI3-60" style="edgeStyle=orthogonalEdgeStyle;rounded=0;orthogonalLoop=1;jettySize=auto;html=1;entryX=0.005;entryY=0.519;entryDx=0;entryDy=0;entryPerimeter=0;" parent="1" source="3rBEs1fn-p0gO1Dq3yI3-33" target="-ClpmWL-vCqkwVTe-hmP-21" edge="1">
          <mxGeometry relative="1" as="geometry" />
        </mxCell>
        <mxCell id="3rBEs1fn-p0gO1Dq3yI3-69" style="edgeStyle=orthogonalEdgeStyle;rounded=0;orthogonalLoop=1;jettySize=auto;html=1;exitX=1;exitY=0.53;exitDx=0;exitDy=0;exitPerimeter=0;entryX=0.581;entryY=0.009;entryDx=0;entryDy=0;entryPerimeter=0;" parent="1" source="3rBEs1fn-p0gO1Dq3yI3-6" target="-ClpmWL-vCqkwVTe-hmP-35" edge="1">
          <mxGeometry relative="1" as="geometry" />
        </mxCell>
        <mxCell id="-ClpmWL-vCqkwVTe-hmP-19" value="&lt;font style=&quot;font-size: 16px;&quot;&gt;Consume&lt;/font&gt;" style="rounded=1;whiteSpace=wrap;html=1;strokeColor=none;fillColor=default;" parent="1" vertex="1">
          <mxGeometry x="1005" y="235" width="70" height="30" as="geometry" />
        </mxCell>
        <mxCell id="vbPMTM3KG2Y7SeXqZmjB-2" style="edgeStyle=orthogonalEdgeStyle;rounded=0;orthogonalLoop=1;jettySize=auto;html=1;entryX=0.5;entryY=0;entryDx=0;entryDy=0;entryPerimeter=0;exitX=0.5;exitY=1;exitDx=0;exitDy=0;" edge="1" parent="1" source="-ClpmWL-vCqkwVTe-hmP-23" target="vbPMTM3KG2Y7SeXqZmjB-1">
          <mxGeometry relative="1" as="geometry">
            <Array as="points">
              <mxPoint x="575" y="550" />
              <mxPoint x="980" y="550" />
            </Array>
          </mxGeometry>
        </mxCell>
        <mxCell id="vbPMTM3KG2Y7SeXqZmjB-5" value="" style="rounded=0;whiteSpace=wrap;html=1;dashed=1;fillColor=none;" vertex="1" parent="1">
          <mxGeometry x="310" y="240" width="530" height="300" as="geometry" />
        </mxCell>
      </root>
    </mxGraphModel>
  </diagram>
</mxfile>
